<svg width="34" height="36" viewBox="0 0 34 36" fill="none" xmlns="http://www.w3.org/2000/svg">
<path d="M0.711297 18.497C0.936793 18.7199 1.20452 18.8967 1.49915 19.0173C1.79379 19.1379 2.10956 19.2 2.42848 19.2C2.7474 19.2 3.06321 19.138 3.35785 19.0174C3.6525 18.8968 3.92024 18.72 4.14576 18.4972L14.5714 8.19421V33.6C14.5714 34.2365 14.8273 34.8469 15.2827 35.297C15.7381 35.7471 16.3559 36 17 36C17.6441 36 18.2618 35.7471 18.7172 35.297C19.1727 34.8469 19.4286 34.2365 19.4286 33.6V8.19421L29.8541 18.497C30.0796 18.7199 30.3473 18.8967 30.6419 19.0174C30.9366 19.138 31.2524 19.2001 31.5713 19.2001C31.8903 19.2001 32.2061 19.1381 32.5008 19.0175C32.7954 18.8968 33.0631 18.72 33.2887 18.4972C33.5142 18.2743 33.6931 18.0097 33.8151 17.7185C33.9372 17.4273 34 17.1152 34 16.8C34 16.4848 33.9371 16.1728 33.8151 15.8816C33.693 15.5904 33.5141 15.3258 33.2886 15.103L18.7172 0.702934C18.2617 0.252858 17.6441 0 17 0C16.3559 0 15.7382 0.252858 15.2827 0.702934L0.711297 15.103C0.255861 15.553 0 16.1635 0 16.8C0 17.4365 0.255861 18.0469 0.711297 18.497Z" fill="white"/>
</svg>
