<svg width="8" height="12" viewBox="0 0 8 12" fill="none" xmlns="http://www.w3.org/2000/svg">
<path d="M6.7158 5.28909L1.7158 0.289087C1.62256 0.195848 1.51187 0.121888 1.39005 0.0714273C1.26823 0.020967 1.13766 -0.00500488 1.0058 -0.00500488C0.739497 -0.00500488 0.484102 0.100783 0.295798 0.289087C0.20256 0.382325 0.128599 0.493016 0.0781384 0.614838C0.027678 0.73666 0.00170708 0.867228 0.00170708 0.999087C0.00170708 1.26539 0.107495 1.52078 0.295798 1.70909L4.5958 5.99909L0.295798 10.2891C0.20207 10.3821 0.127676 10.4927 0.0769072 10.6145C0.0261385 10.7364 0 10.8671 0 10.9991C0 11.1311 0.0261385 11.2618 0.0769072 11.3837C0.127676 11.5055 0.20207 11.6161 0.295798 11.7091C0.388761 11.8028 0.499362 11.8772 0.621222 11.928C0.743081 11.9787 0.873786 12.0049 1.0058 12.0049C1.13781 12.0049 1.26852 11.9787 1.39038 11.928C1.51223 11.8772 1.62284 11.8028 1.7158 11.7091L6.7158 6.70909C6.80953 6.61612 6.88392 6.50552 6.93469 6.38366C6.98546 6.2618 7.0116 6.1311 7.0116 5.99909C7.0116 5.86707 6.98546 5.73637 6.93469 5.61451C6.88392 5.49265 6.80953 5.38205 6.7158 5.28909Z" fill="#042257"/>
</svg>
