<svg width="20" height="20" viewBox="0 0 20 20" fill="none" xmlns="http://www.w3.org/2000/svg">
<path d="M9.99854 18C12.1203 18 14.1551 17.1571 15.6554 15.6569C17.1557 14.1566 17.9985 12.1217 17.9985 10C17.9985 7.87827 17.1557 5.84344 15.6554 4.34315C14.1551 2.84285 12.1203 2 9.99854 2C7.8768 2 5.84197 2.84285 4.34168 4.34315C2.84139 5.84344 1.99854 7.87827 1.99854 10C1.99854 12.1217 2.84139 14.1566 4.34168 15.6569C5.84197 17.1571 7.8768 18 9.99854 18ZM9.99854 20C4.47554 20 -0.00146484 15.523 -0.00146484 10C-0.00146484 4.477 4.47554 0 9.99854 0C15.5215 0 19.9985 4.477 19.9985 10C19.9985 15.523 15.5215 20 9.99854 20Z" fill="#042257"/>
<path d="M8.69355 6.937V8.314H7.68555V9.997H8.69355V15H10.7655V9.997H12.1555C12.1555 9.997 12.2865 9.19 12.3495 8.307H10.7735V7.157C10.7735 6.984 10.9995 6.753 11.2235 6.753H12.3515V5H10.8165C8.64255 5 8.69355 6.685 8.69355 6.937Z" fill="#042257"/>
</svg>
