<svg width="22" height="22" viewBox="0 0 22 22" fill="none" xmlns="http://www.w3.org/2000/svg">
<path d="M21.2644 1.42677C20.9797 1.18993 20.6361 1.03472 20.2702 0.977667C19.9043 0.920612 19.5297 0.963849 19.1864 1.10277L1.26542 8.33777C0.882269 8.49547 0.556127 8.76594 0.330259 9.11329C0.104392 9.46064 -0.0105241 9.86846 0.00075781 10.2826C0.0120397 10.6968 0.148986 11.0978 0.393428 11.4323C0.63787 11.7669 0.978252 12.0192 1.36942 12.1558L4.99442 13.4168L7.01442 20.0988C7.0421 20.1879 7.08216 20.2728 7.13342 20.3508C7.14142 20.3628 7.15242 20.3708 7.16042 20.3838C7.21935 20.4658 7.29051 20.5383 7.37142 20.5988C7.394 20.6165 7.41736 20.6331 7.44142 20.6488C7.53614 20.7116 7.64101 20.7577 7.75142 20.7848L7.76442 20.7858L7.77042 20.7888C7.83725 20.8022 7.90525 20.8089 7.97342 20.8088L7.99142 20.8058C8.09383 20.8041 8.19536 20.7865 8.29242 20.7538C8.31542 20.7458 8.33442 20.7338 8.35642 20.7238C8.42901 20.694 8.49783 20.6557 8.56142 20.6098C8.61207 20.5668 8.66273 20.5238 8.71342 20.4808L11.4154 17.4978L15.4454 20.6198C15.8001 20.8961 16.2368 21.0463 16.6864 21.0468C17.1577 21.0462 17.6144 20.8837 17.98 20.5863C18.3456 20.289 18.5978 19.875 18.6944 19.4138L21.9574 3.39677C22.0312 3.03643 22.0057 2.66281 21.8837 2.31583C21.7616 1.96885 21.5476 1.66155 21.2644 1.42677ZM8.36942 13.7348C8.23092 13.873 8.1363 14.049 8.09741 14.2408L7.78742 15.7448L7.00342 13.1518L11.0684 11.0348L8.36942 13.7348ZM16.6714 19.0388L11.9084 15.3488C11.7091 15.195 11.4592 15.1219 11.2084 15.1442C10.9577 15.1664 10.7245 15.2823 10.5554 15.4688L9.68941 16.4238L9.99542 14.9368L17.0784 7.85377C17.2465 7.68469 17.3486 7.46113 17.3664 7.22339C17.3841 6.98566 17.3164 6.7494 17.1754 6.5572C17.0343 6.365 16.8293 6.22952 16.5971 6.17516C16.365 6.12081 16.1211 6.15117 15.9094 6.26077L5.74442 11.5528L2.01942 10.1898L19.9984 2.99877L16.6714 19.0388Z" fill="#042257"/>
</svg>
