<svg width="32" height="20" viewBox="0 0 32 20" fill="none" xmlns="http://www.w3.org/2000/svg">
<path fill-rule="evenodd" clip-rule="evenodd" d="M30.8329 16.0362C30.1302 14.6211 29.2043 13.3284 28.0906 12.2077C27.7182 11.7867 27.3282 11.3817 26.9217 10.9935L26.8726 10.9457C26.7217 10.7991 26.5727 10.6506 26.4257 10.5001C27.948 8.38315 29.2507 6.11663 30.3136 3.73562L30.3562 3.64004L30.3859 3.53929C30.5267 3.07041 30.6869 2.17916 30.1186 1.37316C29.5296 0.541328 28.5879 0.391494 27.9563 0.391494H25.0539C24.4462 0.3638 23.8453 0.529055 23.3372 0.863609C22.8291 1.19816 22.4399 1.68487 22.2252 2.25408C21.6006 3.74161 20.8185 5.15803 19.8924 6.47912V3.07816C19.8924 2.63899 19.8511 1.90274 19.3797 1.28274C18.8165 0.538744 18.0014 0.391494 17.4357 0.391494H12.8296C12.2286 0.377665 11.6452 0.595527 11.2004 0.999965C10.7556 1.4044 10.4833 1.96443 10.44 2.56408L10.4361 2.6222V2.68033C10.4361 3.30679 10.6841 3.7692 10.8831 4.05983C10.9722 4.19029 11.0665 4.30912 11.1272 4.38404L11.1401 4.40083C11.2047 4.48091 11.2473 4.53387 11.2899 4.59329C11.4036 4.7457 11.5651 4.98337 11.6116 5.59562V7.49824C10.687 5.94995 9.92883 4.30814 9.34986 2.60024L9.33952 2.57183L9.32919 2.5447C9.17161 2.13266 8.91973 1.53333 8.41469 1.07608C7.82569 0.540036 7.12819 0.391494 6.49398 0.391494H3.54898C2.90702 0.391494 2.13332 0.541328 1.55594 1.1497C0.9889 1.74904 0.924316 2.4672 0.924316 2.84695V3.02004L0.960483 3.18795C1.77591 6.97354 3.45629 10.5191 5.87011 13.5471C6.97368 15.2874 8.47189 16.7431 10.2432 17.796C12.0146 18.849 14.0092 19.4696 16.0652 19.6076L16.1182 19.6115H16.1724C17.1102 19.6115 18.088 19.5301 18.8229 19.0406C19.8137 18.3792 19.8924 17.3653 19.8924 16.859V15.389C20.1469 15.5957 20.4621 15.8721 20.8483 16.2441C21.3159 16.7117 21.6879 17.1173 22.0069 17.4712L22.1774 17.6598C22.4254 17.9362 22.6695 18.2087 22.8917 18.4322C23.1707 18.7125 23.5156 19.0212 23.947 19.2498C24.4159 19.4965 24.908 19.6089 25.4298 19.6089H28.3761C28.9974 19.6089 29.8874 19.4617 30.5138 18.7357C31.1958 17.9452 31.1441 16.9752 30.9297 16.279L30.891 16.1537L30.8329 16.0362ZM23.4445 16.1731C23.0442 15.7256 22.632 15.2888 22.2084 14.8633L22.2045 14.8595C20.4517 13.17 19.6341 12.8767 19.0554 12.8767C18.7467 12.8767 18.407 12.9103 18.1861 13.1867C18.0867 13.3186 18.0215 13.473 17.9963 13.6362C17.9651 13.8258 17.9513 14.0177 17.9549 14.2097V16.859C17.9549 17.1883 17.9007 17.3265 17.7483 17.4273C17.5455 17.5629 17.1128 17.6727 16.1841 17.6727C14.4199 17.5527 12.7095 17.0156 11.1933 16.1058C9.67713 15.1959 8.39857 13.9391 7.46273 12.4389L7.4524 12.4221L7.43948 12.4066C5.19084 9.60774 3.6237 6.32443 2.86182 2.81595C2.86698 2.64804 2.90315 2.54599 2.96257 2.48399C3.02327 2.41941 3.17182 2.32899 3.54898 2.32899H6.49398C6.82077 2.32899 6.99127 2.40133 7.11398 2.51112C7.2509 2.6377 7.37232 2.85083 7.51698 3.23058C8.24032 5.35666 9.21682 7.34583 10.1429 8.8067C10.6054 9.53779 11.06 10.1462 11.4708 10.5763C11.6761 10.7907 11.8764 10.969 12.0688 11.0955C12.2535 11.217 12.4641 11.3138 12.6811 11.3138C12.7947 11.3138 12.9278 11.3009 13.0556 11.2454C13.1937 11.1844 13.3074 11.0789 13.3786 10.9457C13.5116 10.7029 13.5491 10.3451 13.5491 9.8762V5.51941C13.4806 4.46283 13.1616 3.86737 12.8516 3.44499C12.7888 3.36051 12.7242 3.2774 12.6578 3.1957L12.641 3.17504C12.5859 3.10813 12.5334 3.0392 12.4834 2.96837C12.4199 2.88938 12.3816 2.79304 12.3736 2.69195C12.3838 2.58931 12.4328 2.49443 12.5106 2.42671C12.5884 2.359 12.6891 2.32358 12.7921 2.3277H17.4357C17.7018 2.3277 17.7909 2.39229 17.8361 2.45299C17.9007 2.53695 17.9549 2.71133 17.9549 3.07816V8.92683C17.9549 9.62174 18.2753 10.0919 18.7403 10.0919C19.275 10.0919 19.6612 9.7677 20.3355 9.09345L20.3471 9.08053L20.3574 9.06891C21.8699 7.22478 23.1057 5.17011 24.0258 2.96966L24.0309 2.95416C24.1001 2.75975 24.2309 2.59329 24.4035 2.48018C24.5761 2.36707 24.7809 2.31352 24.9868 2.3277H27.9576C28.3606 2.3277 28.4924 2.43104 28.5363 2.49174C28.5815 2.55633 28.6138 2.69454 28.5363 2.96579C27.4753 5.33774 26.1637 7.58944 24.6238 9.68245L24.6135 9.69795C24.4649 9.92658 24.3009 10.1797 24.2776 10.4691C24.2518 10.7817 24.3861 11.0645 24.6225 11.3694C24.7943 11.6225 25.1495 11.97 25.5099 12.3226L25.5435 12.3562C25.9206 12.7256 26.3301 13.126 26.6582 13.5135L26.6672 13.5226L26.6763 13.5329C27.6546 14.5087 28.4681 15.6368 29.0852 16.8732C29.1834 17.209 29.124 17.3821 29.0465 17.4712C28.9574 17.5745 28.7571 17.6714 28.3774 17.6714H25.4298C25.2289 17.6763 25.0301 17.6296 24.8524 17.5358C24.6347 17.4091 24.437 17.2506 24.266 17.0656C24.0813 16.8809 23.8811 16.6575 23.6357 16.3849L23.4458 16.1731H23.4445Z" fill="#042257"/>
</svg>
