<svg width="20" height="22" viewBox="0 0 20 22" fill="none" xmlns="http://www.w3.org/2000/svg">
<path d="M14.6469 13.0125C14.4469 12.9125 13.1469 12.3125 12.9469 12.2125C12.7469 12.1125 12.5469 12.1125 12.3469 12.3125C12.1469 12.5125 11.7469 13.1125 11.5469 13.3125C11.4469 13.5125 11.2469 13.5125 11.0469 13.4125C10.3469 13.1125 9.64688 12.7125 9.04688 12.2125C8.54688 11.7125 8.04688 11.1125 7.64688 10.5125C7.54688 10.3125 7.64687 10.1125 7.74687 10.0125C7.84687 9.9125 7.94688 9.7125 8.14688 9.6125C8.24688 9.5125 8.34688 9.3125 8.34688 9.2125C8.44688 9.1125 8.44688 8.9125 8.34688 8.8125C8.24687 8.7125 7.74687 7.5125 7.54688 7.0125C7.44688 6.3125 7.24687 6.3125 7.04688 6.3125H6.54688C6.34688 6.3125 6.04688 6.5125 5.94688 6.6125C5.34688 7.2125 5.04688 7.9125 5.04688 8.7125C5.14687 9.6125 5.44688 10.5125 6.04688 11.3125C7.14687 12.9125 8.54688 14.2125 10.2469 15.0125C10.7469 15.2125 11.1469 15.4125 11.6469 15.5125C12.1469 15.7125 12.6469 15.7125 13.2469 15.6125C13.9469 15.5125 14.5469 15.0125 14.9469 14.4125C15.1469 14.0125 15.1469 13.6125 15.0469 13.2125L14.6469 13.0125ZM17.1469 3.9125C13.2469 0.0125031 6.94688 0.0125031 3.04688 3.9125C-0.153125 7.1125 -0.753125 12.0125 1.44688 15.9125L0.046875 21.0125L5.34688 19.6125C6.84688 20.4125 8.44687 20.8125 10.0469 20.8125C15.5469 20.8125 19.9469 16.4125 19.9469 10.9125C20.0469 8.3125 18.9469 5.8125 17.1469 3.9125ZM14.4469 17.9125C13.1469 18.7125 11.6469 19.2125 10.0469 19.2125C8.54688 19.2125 7.14688 18.8125 5.84688 18.1125L5.54688 17.9125L2.44688 18.7125L3.24687 15.7125L3.04688 15.4125C0.646875 11.4125 1.84687 6.4125 5.74687 3.9125C9.64688 1.4125 14.6469 2.7125 17.0469 6.5125C19.4469 10.4125 18.3469 15.5125 14.4469 17.9125Z" fill="#042257"/>
</svg>
